<?xml version="1.0" encoding="UTF-8"?>
<svg width="207px" height="40px" viewBox="0 0 207 40" version="1.1" xmlns="http://www.w3.org/2000/svg" xmlns:xlink="http://www.w3.org/1999/xlink">
    <title>ic_header_logo</title>
    <g id="主界面-web（简体中文）" stroke="none" stroke-width="1" fill="none" fill-rule="evenodd">
        <g id="1.0PT官网_首页_简体中文1" transform="translate(-360.000000, -12.000000)">
            <g id="ic_header_logo" transform="translate(360.000000, 12.000000)">
                <rect id="矩形" x="0" y="0" width="206" height="40"></rect>
                <text id="POTATO-CHAT" font-family="ErasITC-Bold, Eras Bold ITC" font-size="20" font-weight="bold" line-spacing="28" fill="#007EE5">
                    <tspan x="48" y="24">POTATO  CHAT</tspan>
                </text>
                <g id="potato" transform="translate(5.000000, 4.000000)" fill="#007EE5" fill-rule="nonzero">
                    <path d="M10.6701181,2.55250737 C9.54551063,2.7562579 8.43522942,3.06984269 7.39976284,3.55772973 C6.75189981,3.86813094 6.13030152,4.24140827 5.57874248,4.70303057 C4.30848526,5.71700784 3.42423977,7.15520006 2.92282245,8.69049213 C2.29485693,10.5950821 2.15875796,12.6206489 2.19536937,14.6143797 C2.23834801,16.2061807 2.45005752,17.8091243 2.9864945,19.3141722 C3.4568717,20.6512851 4.214569,21.8984612 5.24605606,22.8766229 C6.2059121,23.7903167 7.38145715,24.4564854 8.62306194,24.907761 C8.62704145,26.7271896 8.62385784,28.5466182 8.62544966,30.3660468 C8.62624555,30.4559835 8.63102096,30.5570629 8.70503971,30.6191431 C8.8206992,30.6250937 8.93281425,30.5782572 9.00986959,30.4917991 C9.27331266,30.2251724 9.52402133,29.9458113 9.76597509,29.660083 C10.8563588,28.4057438 11.9101311,27.1195686 12.9941476,25.8612498 C13.070554,25.7418648 13.2169997,25.8015573 13.3316094,25.7991696 C14.8032294,25.8851269 16.2836044,25.8596581 17.7504491,25.7036616 C19.0127473,25.5603995 20.2694742,25.3096908 21.463325,24.867966 C22.486853,24.484342 23.4642189,23.9566599 24.2999144,23.2467167 C24.9804714,22.6737681 25.5639603,21.9945987 26.0278144,21.2354761 C27.007568,19.6325324 27.4500887,17.7605744 27.6140442,15.9053303 C27.7268088,14.5099395 27.7193529,13.1074354 27.5917589,11.7133223 C27.4564558,10.3125374 27.1906251,8.90777298 26.6271275,7.61045513 C26.1487913,6.47629689 25.4093997,5.44799344 24.4590945,4.66005193 C23.9338002,4.21991894 23.3424461,3.86255961 22.7280109,3.56011741 C21.4856102,2.97274282 20.1381506,2.64085233 18.7811402,2.45222388 C17.1646663,2.21982093 15.5274989,2.19355622 13.8974947,2.22698405 C12.8158659,2.26837086 11.735033,2.35830762 10.6701181,2.55330326 M13.7741301,0.0621346393 C14.6512732,0.0167654153 15.5302734,0.0207512146 16.406969,0.0740731654 C18.0290142,0.140928794 19.6542431,0.298517102 21.2356974,0.674182152 C22.6587675,1.01403169 24.0595525,1.5281834 25.2772802,2.35194042 C26.2017881,2.96500665 27.0012781,3.74829084 27.6331457,4.66005193 C28.3956184,5.75202743 28.8986275,7.00477484 29.2305181,8.28935827 C29.551266,9.52618769 29.7120379,10.8004244 29.7932197,12.0738652 C29.8624631,13.23588 29.8863401,14.4018743 29.807546,15.5646849 C29.6993035,17.4318675 29.3849228,19.3101927 28.663041,21.0460517 C28.1274,22.348145 27.3442339,23.556322 26.3238894,24.532096 C25.0966108,25.7211714 23.5549515,26.5457243 21.9368858,27.0662432 C19.7433839,27.7690234 17.4265175,27.9910796 15.1327322,28.0022222 C14.3320563,28.0149567 13.5305845,27.9759575 12.7307045,27.9353666 C12.1958594,28.5386592 11.6801158,29.1618493 11.142883,29.7659378 C10.6199763,30.3588837 10.1082123,30.9653599 9.55426555,31.5312451 C9.31947491,31.7540973 8.98838029,31.8464217 8.67161188,31.8671151 C8.31266076,31.8535848 7.9330162,31.7341998 7.69265423,31.4540428 C7.50163809,31.2455169 7.41329316,30.9629722 7.39896695,30.6859988 C7.39259975,29.4045989 7.40613004,28.1216073 7.39259975,26.8402075 C6.93575286,26.6460078 6.47253874,26.4605629 6.03479347,26.2225887 C4.84730989,25.6033781 3.76249751,24.7700702 2.90292494,23.7393791 C1.97570084,22.6466077 1.30634851,21.3500857 0.863031903,19.9914836 C0.215168905,17.9993446 0.0209691853,15.8886164 0.0233351791,13.804153 C0.0528051928,12.0348661 0.19208778,10.2544367 0.644159266,8.53767923 C0.937050653,7.41386769 1.36763284,6.32268809 1.96933364,5.32860836 C2.34940545,4.71462623 2.79478241,4.1435617 3.2976916,3.62538125 C4.42468672,2.48565171 5.84616505,1.66746598 7.3512129,1.13421266 C9.25978237,0.46167671 11.2837574,0.187091014 13.2981816,0.0876034515 C13.4565658,0.0740731343 13.6165418,0.078052643 13.7741301,0.0621346393" id="形状"></path>
                    <path d="M18.7007543,6.7699842 C20.2762362,6.18113238 21.9519697,5.9072066 23.6329498,5.96373697 C23.4180566,7.13848613 23.0463711,8.28139928 22.5767898,9.37735429 C22.423181,9.72277512 22.2640009,10.0666041 22.0833315,10.3984947 C20.7304406,9.42029623 19.581442,8.18748834 18.7007543,6.76918828 M17.9414652,9.97427966 C17.5664499,10.0183192 17.2221922,10.203251 16.9784256,10.491615 C16.662453,10.8378317 16.5526188,11.3416367 16.6457391,11.7953 C16.7730832,12.4129188 17.3278259,12.9095608 17.9549955,12.9732328 C18.4993914,13.0369049 19.0692562,12.7766454 19.3709025,12.3182067 C19.5284908,12.0794365 19.631162,11.796096 19.6255907,11.507184 C19.6376171,11.0698951 19.4584865,10.6490742 19.1349765,10.3546128 C18.8114665,10.0601515 18.3756977,9.92128615 17.9414652,9.97427966 M17.9016701,7.10107879 C18.0290142,7.04218215 18.1563583,6.97771421 18.2940491,6.9466741 C19.2013757,8.45888507 20.4366133,9.76893731 21.8676424,10.795649 C20.6180786,13.036109 18.7938746,14.9311481 16.6815547,16.3749116 C15.3583102,17.2769505 13.9347093,18.0221375 12.4394049,18.595474 C12.3943105,18.6164391 12.3499773,18.639004 12.3064895,18.6631256 L12.2961428,18.6686969 C11.75617,18.0346898 11.1535323,17.4568509 10.4974076,16.9439805 C10.9057172,14.122738 12.2447027,11.5187194 14.3018121,9.5452893 C15.3537408,8.53160772 16.5712323,7.70523164 17.9016701,7.10187472 M8.542676,12.3277575 C9.64226999,11.5434391 10.9656843,11.1350537 12.3160403,11.163355 C12.0279243,11.6202019 11.7222985,12.067498 11.4819366,12.5522014 C10.9911993,13.4855701 10.6144241,14.4745383 10.3597169,15.4978292 C9.03449329,15.0197055 7.58803519,14.9950707 6.24729891,15.42779 C6.66882486,14.1793109 7.47170863,13.094694 8.542676,12.3269616 M18.3903531,17.3140742 L18.4261686,17.2710956 C18.4634385,18.7713759 17.9575054,20.2346249 17.0015067,21.3914726 C16.2557607,22.2948038 15.2728907,22.972284 14.1633254,23.347796 C14.3728683,22.702014 14.476613,22.0265985 14.470543,21.347698 C15.1040799,21.0938058 15.6723528,20.7030186 16.1865045,20.2581102 C16.5916179,19.9222402 16.934651,19.5211063 17.2689292,19.115993 C17.6750777,18.5994712 18.030624,18.0450962 18.3306605,17.4605199 C18.3521498,17.4127659 18.3688638,17.3618282 18.3903531,17.3140742 M7.05752562,21.8960735 C8.02852425,20.4467387 8.98917618,18.9902407 9.96495022,17.5440895 C10.2562498,17.844144 10.5539166,18.1386271 10.8531752,18.4315185 C9.93391011,19.3579467 9.00668598,20.2748241 8.0874209,21.2012523 C7.79930491,21.4869806 7.51596433,21.7774843 7.22307295,22.0592331 L7.05752562,21.8960735 M10.3103711,19.6102472 C10.5976911,19.3261107 10.8778481,19.0340152 11.1707395,18.7554501 C11.4692022,19.0539127 11.7724403,19.3491919 12.0645358,19.6548176 C10.6128132,20.6178572 9.16507018,21.5856723 7.71573535,22.5518955 C7.65763461,22.4945907 7.59714618,22.4404695 7.53665774,22.3847564 C8.45990233,21.4575323 9.38712643,20.5358795 10.3103711,19.6094513" id="形状"></path>
                    <path d="M23.6329498,5.96373697 L23.6353375,5.95259437 C23.6783161,7.62796496 23.414873,9.31288635 22.8235189,10.8824021 C22.5640554,10.7415278 22.3332442,10.5560829 22.0833315,10.3984947 C22.2640009,10.0658082 22.423181,9.72277512 22.5767898,9.37735429 C23.0463711,8.28139928 23.4180566,7.13848613 23.6329498,5.96373697 M21.8676424,10.795649 C22.1143716,10.9946241 22.3977122,11.1442534 22.6555839,11.3281064 C22.4008958,11.8955835 22.1326773,12.4566934 21.8111335,12.9891508 C20.5325708,15.1075558 18.6748604,16.8161412 16.4571107,17.9133873 C15.2603485,18.5025207 13.9788792,18.901033 12.6590734,19.0945037 C12.5373007,18.9544252 12.422691,18.8079795 12.3064895,18.6631256 C12.3502641,18.6392486 12.3940386,18.6153715 12.4394049,18.5946781 C13.9348518,18.0216573 15.3584885,17.2764517 16.6815547,16.3741157 C18.7938746,14.9311481 20.6180786,13.036109 21.8676424,10.7948531 M17.3222546,17.9619373 C17.6923483,17.7701252 18.0298101,17.5226002 18.3903531,17.3148701 C18.3688638,17.3626242 18.3505581,17.4127659 18.3306605,17.4605199 C18.0305814,18.0450717 17.6750377,18.5994426 17.2689292,19.115993 C16.934651,19.5211063 16.5916179,19.9222402 16.1865045,20.2581102 C15.6723528,20.7022227 15.1040799,21.0938058 14.470543,21.347698 C14.4711908,20.6275553 14.3434396,19.9130651 14.0932862,19.2377658 C15.2209393,18.9560498 16.3065918,18.5270873 17.3222546,17.9619373" id="形状"></path>
                </g>
            </g>
        </g>
    </g>
</svg>